<svg id="visual" viewBox="0 0 960 540" width="960" height="540" xmlns="http://www.w3.org/2000/svg" xmlns:xlink="http://www.w3.org/1999/xlink" version="1.1"><rect x="0" y="0" width="960" height="540" fill="#081727"></rect><defs><linearGradient id="grad1_0" x1="43.8%" y1="0%" x2="100%" y2="100%"><stop offset="14.444444444444446%" stop-color="#cd9745" stop-opacity="1"></stop><stop offset="85.55555555555554%" stop-color="#cd9745" stop-opacity="1"></stop></linearGradient></defs><defs><linearGradient id="grad1_1" x1="43.8%" y1="0%" x2="100%" y2="100%"><stop offset="14.444444444444446%" stop-color="#cd9745" stop-opacity="1"></stop><stop offset="85.55555555555554%" stop-color="#c16b50" stop-opacity="1"></stop></linearGradient></defs><defs><linearGradient id="grad1_2" x1="43.8%" y1="0%" x2="100%" y2="100%"><stop offset="14.444444444444446%" stop-color="#9c4b5c" stop-opacity="1"></stop><stop offset="85.55555555555554%" stop-color="#c16b50" stop-opacity="1"></stop></linearGradient></defs><defs><linearGradient id="grad1_3" x1="43.8%" y1="0%" x2="100%" y2="100%"><stop offset="14.444444444444446%" stop-color="#9c4b5c" stop-opacity="1"></stop><stop offset="85.55555555555554%" stop-color="#68395a" stop-opacity="1"></stop></linearGradient></defs><defs><linearGradient id="grad1_4" x1="43.8%" y1="0%" x2="100%" y2="100%"><stop offset="14.444444444444446%" stop-color="#322a47" stop-opacity="1"></stop><stop offset="85.55555555555554%" stop-color="#68395a" stop-opacity="1"></stop></linearGradient></defs><defs><linearGradient id="grad1_5" x1="43.8%" y1="0%" x2="100%" y2="100%"><stop offset="14.444444444444446%" stop-color="#322a47" stop-opacity="1"></stop><stop offset="85.55555555555554%" stop-color="#081727" stop-opacity="1"></stop></linearGradient></defs><defs><linearGradient id="grad2_0" x1="0%" y1="0%" x2="56.3%" y2="100%"><stop offset="14.444444444444446%" stop-color="#cd9745" stop-opacity="1"></stop><stop offset="85.55555555555554%" stop-color="#cd9745" stop-opacity="1"></stop></linearGradient></defs><defs><linearGradient id="grad2_1" x1="0%" y1="0%" x2="56.3%" y2="100%"><stop offset="14.444444444444446%" stop-color="#c16b50" stop-opacity="1"></stop><stop offset="85.55555555555554%" stop-color="#cd9745" stop-opacity="1"></stop></linearGradient></defs><defs><linearGradient id="grad2_2" x1="0%" y1="0%" x2="56.3%" y2="100%"><stop offset="14.444444444444446%" stop-color="#c16b50" stop-opacity="1"></stop><stop offset="85.55555555555554%" stop-color="#9c4b5c" stop-opacity="1"></stop></linearGradient></defs><defs><linearGradient id="grad2_3" x1="0%" y1="0%" x2="56.3%" y2="100%"><stop offset="14.444444444444446%" stop-color="#68395a" stop-opacity="1"></stop><stop offset="85.55555555555554%" stop-color="#9c4b5c" stop-opacity="1"></stop></linearGradient></defs><defs><linearGradient id="grad2_4" x1="0%" y1="0%" x2="56.3%" y2="100%"><stop offset="14.444444444444446%" stop-color="#68395a" stop-opacity="1"></stop><stop offset="85.55555555555554%" stop-color="#322a47" stop-opacity="1"></stop></linearGradient></defs><defs><linearGradient id="grad2_5" x1="0%" y1="0%" x2="56.3%" y2="100%"><stop offset="14.444444444444446%" stop-color="#081727" stop-opacity="1"></stop><stop offset="85.55555555555554%" stop-color="#322a47" stop-opacity="1"></stop></linearGradient></defs><g transform="translate(960, 0)"><path d="M0 405C-30.9 388 -61.7 371.1 -96.8 361.3C-131.9 351.4 -171.2 348.8 -183.5 317.8C-195.8 286.9 -181.2 227.6 -207.9 207.9C-234.6 188.1 -302.6 207.8 -340.3 196.5C-378.1 185.2 -385.5 142.7 -391.2 104.8C-396.9 66.9 -401 33.4 -405 0L0 0Z" fill="#1b2138"></path><path d="M0 337.5C-25.7 323.4 -51.4 309.2 -80.7 301C-109.9 292.9 -142.6 290.6 -152.9 264.9C-163.2 239.1 -151 189.7 -173.2 173.2C-195.5 156.8 -252.2 173.2 -283.6 163.8C-315.1 154.3 -321.2 119 -326 87.4C-330.8 55.7 -334.1 27.9 -337.5 0L0 0Z" fill="#4c3253"></path><path d="M0 270C-20.6 258.7 -41.1 247.4 -64.5 240.8C-87.9 234.3 -114.1 232.5 -122.3 211.9C-130.6 191.3 -120.8 151.8 -138.6 138.6C-156.4 125.4 -201.8 138.6 -226.9 131C-252 123.4 -257 95.2 -260.8 69.9C-264.6 44.6 -267.3 22.3 -270 0L0 0Z" fill="#83415d"></path><path d="M0 202.5C-15.4 194 -30.9 185.5 -48.4 180.6C-65.9 175.7 -85.6 174.4 -91.7 158.9C-97.9 143.4 -90.6 113.8 -103.9 103.9C-117.3 94.1 -151.3 103.9 -170.2 98.3C-189 92.6 -192.7 71.4 -195.6 52.4C-198.5 33.4 -200.5 16.7 -202.5 0L0 0Z" fill="#b15957"></path><path d="M0 135C-10.3 129.3 -20.6 123.7 -32.3 120.4C-44 117.1 -57.1 116.3 -61.2 105.9C-65.3 95.6 -60.4 75.9 -69.3 69.3C-78.2 62.7 -100.9 69.3 -113.4 65.5C-126 61.7 -128.5 47.6 -130.4 34.9C-132.3 22.3 -133.7 11.1 -135 0L0 0Z" fill="#ca8049"></path><path d="M0 67.5C-5.1 64.7 -10.3 61.8 -16.1 60.2C-22 58.6 -28.5 58.1 -30.6 53C-32.6 47.8 -30.2 37.9 -34.6 34.6C-39.1 31.4 -50.4 34.6 -56.7 32.8C-63 30.9 -64.2 23.8 -65.2 17.5C-66.2 11.1 -66.8 5.6 -67.5 0L0 0Z" fill="#cd9745"></path></g><g transform="translate(0, 540)"><path d="M0 -405C40.9 -412.5 81.8 -420 104 -388.3C126.2 -356.6 129.7 -285.8 148 -256.3C166.3 -226.9 199.3 -238.9 239 -239C278.7 -239.1 325 -227.3 350.7 -202.5C376.5 -177.7 381.7 -139.7 387.3 -103.8C393 -67.9 399 -33.9 405 0L0 0Z" fill="#1b2138"></path><path d="M0 -337.5C34.1 -343.7 68.2 -350 86.7 -323.6C105.2 -297.2 108.1 -238.1 123.3 -213.6C138.6 -189.1 166.1 -199.1 199.2 -199.2C232.2 -199.3 270.8 -189.5 292.3 -168.8C313.7 -148 318.1 -116.4 322.8 -86.5C327.5 -56.5 332.5 -28.3 337.5 0L0 0Z" fill="#4c3253"></path><path d="M0 -270C27.3 -275 54.6 -280 69.4 -258.9C84.2 -237.7 86.5 -190.5 98.7 -170.9C110.8 -151.3 132.9 -159.3 159.3 -159.3C185.8 -159.4 216.7 -151.6 233.8 -135C251 -118.4 254.5 -93.1 258.2 -69.2C262 -45.2 266 -22.6 270 0L0 0Z" fill="#83415d"></path><path d="M0 -202.5C20.5 -206.2 40.9 -210 52 -194.2C63.1 -178.3 64.9 -142.9 74 -128.2C83.1 -113.5 99.7 -119.4 119.5 -119.5C139.3 -119.6 162.5 -113.7 175.4 -101.3C188.2 -88.8 190.9 -69.9 193.7 -51.9C196.5 -33.9 199.5 -17 202.5 0L0 0Z" fill="#b15957"></path><path d="M0 -135C13.6 -137.5 27.3 -140 34.7 -129.4C42.1 -118.9 43.2 -95.3 49.3 -85.4C55.4 -75.6 66.4 -79.6 79.7 -79.7C92.9 -79.7 108.3 -75.8 116.9 -67.5C125.5 -59.2 127.2 -46.6 129.1 -34.6C131 -22.6 133 -11.3 135 0L0 0Z" fill="#ca8049"></path><path d="M0 -67.5C6.8 -68.7 13.6 -70 17.3 -64.7C21 -59.4 21.6 -47.6 24.7 -42.7C27.7 -37.8 33.2 -39.8 39.8 -39.8C46.4 -39.9 54.2 -37.9 58.5 -33.8C62.7 -29.6 63.6 -23.3 64.6 -17.3C65.5 -11.3 66.5 -5.7 67.5 0L0 0Z" fill="#cd9745"></path></g></svg>